# xmcd
# Copyright (C) 1995-1998 Ti Kan
#
# Track frame offsets:
#       150
#       50570
#       86157
#       118960
#       162645
#       201195
#       229745
#       261280
#
# Disc length: 3983 seconds
#
# Revision: 0
# Processed by: cddbd v1.5.2PL0 Copyright (c) Steve Scherf et al.
# Submitted via: CD-Import v1.0
#
DISCID=760f8d08
DTITLE=Clara Haskil - Peter Rybar - Brahms - Busoni - Mozart Disc 1
DYEAR=1995
DGENRE=
TTITLE0=Allegro Non Troppo
TTITLE1=Andante, Un Poco Adagio
TTITLE2=Scherzo: Allegro
TTITLE3=Finale: Poco Sostenuto - Allegro Non Troppo
TTITLE4=Allegro Non Troppo
TTITLE5=Scherzo: Allegro Non Troppo
TTITLE6=Poco Adagio
TTITLE7=Poco Allegro
EXTD=
EXTT0=
EXTT1=
EXTT2=
EXTT3=
EXTT4=
EXTT5=
EXTT6=
EXTT7=
PLAYORDER=
